<svg width="100%" height="100%" viewBox="0 0 24 24" fill="none" xmlns="http://www.w3.org/2000/svg">
<g clip-path="url(#clip0)">
<path d="M20.3922 8.01953C20.392 8.01953 20.3916 8.01953 20.3914 8.01953H0.343619C0.154067 8.01933 0.000200674 8.1728 1.96195e-07 8.36235C1.96195e-07 8.3626 1.96195e-07 8.3629 1.96195e-07 8.36315V17.9861C-0.000200282 18.1756 0.153265 18.3295 0.342817 18.3297C0.343068 18.3297 0.343369 18.3297 0.343619 18.3297H13.9761C14.1659 18.3297 14.3197 18.1758 14.3197 17.9861C14.3197 17.7963 14.1659 17.6425 13.9761 17.6425H0.687238V8.70677H20.0478V9.56602C20.0476 9.75557 20.201 9.90944 20.3906 9.90964C20.3908 9.90964 20.3911 9.90964 20.3914 9.90964C20.5809 9.90984 20.7348 9.75637 20.735 9.56682C20.735 9.56657 20.735 9.56627 20.735 9.56602V8.36315C20.7352 8.1736 20.5818 8.01978 20.3922 8.01953Z" fill="#800020"/>
<path d="M18.0611 6.42356L2.02291 2.81496C1.9339 2.79506 1.84063 2.8112 1.76349 2.85986C1.68646 2.90893 1.63198 2.98646 1.61193 3.07558L0.810021 6.68418C0.768823 6.86952 0.885701 7.05316 1.07104 7.09436C1.25638 7.13555 1.44002 7.01867 1.48122 6.83333L2.20815 3.56113L17.9104 7.09395C17.9352 7.09972 17.9606 7.10257 17.9862 7.10237C18.1759 7.10202 18.3295 6.94791 18.3292 6.75815C18.3289 6.59772 18.2176 6.45889 18.0611 6.42356Z" fill="#800020"/>
<path d="M16.1135 4.43656L6.49058 0.427001C6.32333 0.357285 6.13062 0.428905 6.04953 0.590992L5.24762 2.19481C5.15705 2.36231 5.2194 2.57156 5.38695 2.66213C5.55445 2.75269 5.7637 2.69035 5.85426 2.5228C5.85782 2.51623 5.86118 2.50952 5.86429 2.5027V2.5035L6.52226 1.18676L15.8481 5.07242C16.0237 5.1457 16.2255 5.0628 16.2988 4.88718C16.372 4.71166 16.2891 4.50988 16.1135 4.43656Z" fill="#800020"/>
<path d="M16.3571 9.62305H13.1747C12.9849 9.62305 12.8311 9.77691 12.8311 9.96667C12.8311 10.1564 12.9849 10.3103 13.1747 10.3103H16.3571C16.5468 10.3103 16.7007 10.1564 16.7007 9.96667C16.7007 9.77691 16.5468 9.62305 16.3571 9.62305Z" fill="#800020"/>
<path d="M9.96689 9.64648C8.01819 9.64648 6.43848 11.2262 6.43848 13.1749C6.44048 15.1227 8.01904 16.7013 9.96689 16.7033C11.9156 16.7033 13.4953 15.1236 13.4953 13.1749C13.4953 11.2262 11.9156 9.64648 9.96689 9.64648ZM9.96689 16.0618C8.37249 16.0618 7.08001 14.7693 7.08001 13.1749C7.08176 11.5812 8.37324 10.2898 9.96689 10.288C11.5613 10.288 12.8538 11.5805 12.8538 13.1749C12.8538 14.7693 11.5613 16.0618 9.96689 16.0618Z" fill="#800020"/>
<path d="M19.5892 10.7695C17.4642 10.7695 15.1787 11.2715 15.1787 12.3734V21.9963C15.1787 23.0981 17.4642 23.6001 19.5892 23.6001C21.7143 23.6001 23.9997 23.0981 23.9997 21.9963V12.3734C23.9997 11.2715 21.7143 10.7695 19.5892 10.7695ZM23.1978 21.9903C23.1373 22.2128 21.9348 22.7982 19.5892 22.7982C17.2436 22.7982 16.0412 22.2128 15.9806 21.9963V21.366C16.8339 21.7958 18.2432 21.9963 19.5892 21.9963C20.9352 21.9963 22.345 21.7938 23.1978 21.3656V21.9903ZM23.1978 20.3865C23.1373 20.609 21.9348 21.1944 19.5892 21.1944C17.2436 21.1944 16.0412 20.609 15.9806 20.3925V19.7622C16.8339 20.192 18.2432 20.3925 19.5892 20.3925C20.9352 20.3925 22.345 20.19 23.1978 19.7618V20.3865ZM23.1978 18.7826C23.1373 19.0052 21.9348 19.5906 19.5892 19.5906C17.2436 19.5906 16.0412 19.0052 15.9806 18.7886V18.1583C16.8339 18.5882 18.2432 18.7886 19.5892 18.7886C20.9352 18.7886 22.345 18.5862 23.1978 18.1579V18.7826ZM23.1978 17.1788C23.1373 17.4013 21.9348 17.9867 19.5892 17.9867C17.2436 17.9867 16.0412 17.4013 15.9806 17.1848V16.5545C16.8339 16.9843 18.2432 17.1848 19.5892 17.1848C20.9352 17.1848 22.345 16.9823 23.1978 16.5541V17.1788ZM23.1978 15.575C23.1373 15.7975 21.9348 16.3829 19.5892 16.3829C17.2436 16.3829 16.0412 15.7975 15.9806 15.581V14.9507C16.8339 15.3785 18.2432 15.581 19.5892 15.581C20.9352 15.581 22.345 15.3785 23.1978 14.9503V15.575ZM23.1978 13.9712C23.1373 14.1937 21.9348 14.7791 19.5892 14.7791C17.2436 14.7791 16.0412 14.1937 15.9806 13.9772V13.3469C16.8339 13.7747 18.2432 13.9772 19.5892 13.9772C20.9352 13.9772 22.345 13.7747 23.1978 13.3465V13.9712ZM19.5892 13.1753C17.2472 13.1753 16.0452 12.5915 15.9806 12.3806V12.3782C16.0452 12.1548 17.2472 11.5714 19.5892 11.5714C21.9148 11.5714 23.1176 12.1464 23.1978 12.3734C23.1176 12.6003 21.9148 13.1753 19.5892 13.1753Z" fill="#800020"/>
<path d="M6.75901 16.0379H3.72818L2.29116 14.4662V11.86L3.87814 10.3103H6.75901C6.94876 10.3103 7.10262 10.1564 7.10262 9.96667C7.10262 9.77691 6.94876 9.62305 6.75901 9.62305H3.73861C3.64879 9.62285 3.56244 9.65783 3.49803 9.72048L1.70696 11.4674C1.64005 11.5456 1.60337 11.6452 1.60352 11.7481V14.5997C1.60352 14.6855 1.63554 14.7681 1.69333 14.8315L3.32241 16.6133C3.38752 16.6846 3.47964 16.7252 3.57622 16.7252H6.75901C6.94876 16.7252 7.10262 16.5713 7.10262 16.3816C7.10262 16.1918 6.94881 16.0379 6.75901 16.0379Z" fill="#800020"/>
<path d="M10.167 12.7744H9.76606C9.64136 12.7744 9.56558 12.7047 9.56558 12.6742C9.56558 12.6437 9.64136 12.574 9.76606 12.574H10.7685C10.9899 12.574 11.1694 12.3944 11.1694 12.173C11.1694 11.9516 10.9899 11.772 10.7685 11.772H10.3675C10.3675 11.5506 10.188 11.3711 9.96654 11.3711C9.74511 11.3711 9.56558 11.5506 9.56558 11.772V11.7901C9.12087 11.8529 8.78397 12.2235 8.76367 12.6722C8.79239 13.1979 9.24016 13.6018 9.76606 13.5763H10.167C10.2917 13.5763 10.3675 13.6461 10.3675 13.6766C10.3675 13.7071 10.2917 13.7768 10.167 13.7768H9.16463C8.9432 13.7768 8.76367 13.9564 8.76367 14.1778C8.76367 14.3992 8.9432 14.5787 9.16463 14.5787H9.56558C9.56558 14.8002 9.74511 14.9797 9.96654 14.9797C10.188 14.9797 10.3675 14.8002 10.3675 14.5787V14.5607C10.8122 14.4979 11.1491 14.1273 11.1694 13.6786C11.1407 13.1529 10.6929 12.749 10.167 12.7744Z" fill="#800020"/>
</g>
<defs>
<clipPath id="clip0">
<rect width="24" height="24" fill="white"/>
</clipPath>
</defs>
</svg>
