<svg width="100%" height="100%" viewBox="0 0 26 26" fill="none" xmlns="http://www.w3.org/2000/svg">
<path d="M21.6807 0H3.98622C2.99064 0 2.18066 0.809972 2.18066 1.80556V7.94444C2.18066 8.27685 2.45017 8.5463 2.78252 8.5463C3.11486 8.5463 3.38437 8.27685 3.38437 7.94444V1.80556C3.38437 1.47369 3.65436 1.2037 3.98622 1.2037H21.6807C22.0125 1.2037 22.2825 1.47369 22.2825 1.80556V24.1944C22.2825 24.5263 22.0125 24.7963 21.6807 24.7963H3.98622C3.65436 24.7963 3.38437 24.5263 3.38437 24.1944V13.02C3.38437 12.6876 3.11486 12.4182 2.78252 12.4182C2.45017 12.4182 2.18066 12.6876 2.18066 13.02V24.1944C2.18066 25.19 2.99064 26 3.98622 26H21.6807C22.6762 26 23.4862 25.19 23.4862 24.1944V1.80556C23.4862 0.809972 22.6762 0 21.6807 0Z" fill="white"/>
<path d="M3.20796 10.2148C3.09608 10.1029 2.9408 10.0391 2.78252 10.0391C2.62423 10.0391 2.46895 10.1029 2.35701 10.2148C2.245 10.3273 2.18066 10.4826 2.18066 10.6403C2.18066 10.7992 2.24506 10.9539 2.35701 11.0664C2.46895 11.1784 2.62423 11.2428 2.78252 11.2428C2.94074 11.2428 3.09602 11.1784 3.20796 11.0664C3.31997 10.9545 3.38437 10.7992 3.38437 10.6403C3.38437 10.482 3.31991 10.3273 3.20796 10.2148Z" fill="white"/>
<path d="M9.99297 14.1684C9.75788 13.9335 9.37691 13.9334 9.14177 14.1684L7.54186 15.7683L6.79797 15.0244C6.56295 14.7894 6.18198 14.7894 5.94678 15.0244C5.71175 15.2594 5.71175 15.6405 5.94678 15.8755L7.11629 17.045C7.2292 17.1579 7.38225 17.2213 7.54186 17.2213C7.70153 17.2213 7.85453 17.1579 7.96749 17.045L9.99297 15.0196C10.228 14.7845 10.228 14.4035 9.99297 14.1684Z" fill="white"/>
<path d="M19.8549 14.9863H12.8333C12.501 14.9863 12.2314 15.2558 12.2314 15.5882C12.2314 15.9206 12.501 16.19 12.8333 16.19H19.8549C20.1873 16.19 20.4568 15.9206 20.4568 15.5882C20.4568 15.2558 20.1873 14.9863 19.8549 14.9863Z" fill="white"/>
<path d="M19.5131 4.45508H15.3001C14.9678 4.45508 14.6982 4.72453 14.6982 5.05693C14.6982 5.38933 14.9678 5.65878 15.3001 5.65878H19.5131C19.8454 5.65878 20.1149 5.38933 20.1149 5.05693C20.1149 4.72453 19.8454 4.45508 19.5131 4.45508Z" fill="white"/>
<path d="M19.5131 7.34375H15.3001C14.9678 7.34375 14.6982 7.6132 14.6982 7.9456C14.6982 8.278 14.9678 8.54745 15.3001 8.54745H19.5131C19.8454 8.54745 20.1149 8.278 20.1149 7.9456C20.1149 7.6132 19.8454 7.34375 19.5131 7.34375Z" fill="white"/>
<path d="M19.5131 10.2344H15.3001C14.9678 10.2344 14.6982 10.5038 14.6982 10.8362C14.6982 11.1686 14.9678 11.4381 15.3001 11.4381H19.5131C19.8454 11.4381 20.1149 11.1686 20.1149 10.8362C20.1149 10.5038 19.8454 10.2344 19.5131 10.2344Z" fill="white"/>
<path d="M9.99297 18.7641C9.75788 18.5292 9.37691 18.5291 9.14177 18.7641L7.54186 20.364L6.79797 19.6201C6.56295 19.3851 6.18198 19.3851 5.94678 19.6201C5.71175 19.8551 5.71175 20.2362 5.94678 20.4712L7.11629 21.6407C7.2292 21.7536 7.38225 21.817 7.54186 21.817C7.70153 21.817 7.85453 21.7536 7.96749 21.6407L9.99297 19.6153C10.228 19.3803 10.228 18.9992 9.99297 18.7641Z" fill="white"/>
<path d="M19.8549 19.5586H12.8333C12.501 19.5586 12.2314 19.828 12.2314 20.1604C12.2314 20.4928 12.501 20.7623 12.8333 20.7623H19.8549C20.1873 20.7623 20.4568 20.4928 20.4568 20.1604C20.4568 19.828 20.1873 19.5586 19.8549 19.5586Z" fill="white"/>
<path d="M11.9314 4.45508H6.15361C5.82127 4.45508 5.55176 4.72453 5.55176 5.05693V10.8347C5.55176 11.1671 5.82127 11.4366 6.15361 11.4366H11.9314C12.2637 11.4366 12.5332 11.1671 12.5332 10.8347V5.05693C12.5332 4.72453 12.2637 4.45508 11.9314 4.45508ZM11.3295 10.2329H6.75546V5.65878H11.3295V10.2329Z" fill="white"/>
<rect x="5.76367" y="4.74219" width="5.92593" height="5.92593" fill="white"/>
</svg>
