<svg width="232" height="232" viewBox="0 0 232 232" fill="none" xmlns="http://www.w3.org/2000/svg">
<path d="M116 0C52.2 0 0 52.2 0 116C0 179.8 52.2 232 116 232C179.8 232 232 179.8 232 116C232 52.2 179.8 0 116 0ZM116 34.8C135.72 34.8 150.8 49.88 150.8 69.6C150.8 89.32 135.72 104.4 116 104.4C96.28 104.4 81.2 89.32 81.2 69.6C81.2 49.88 96.28 34.8 116 34.8ZM116 199.52C87 199.52 61.48 184.44 46.4 162.4C46.4 139.2 92.8 126.44 116 126.44C139.2 126.44 185.6 139.2 185.6 162.4C170.52 184.44 145 199.52 116 199.52Z" fill="#828282"/>
</svg>
